<svg xmlns="http://www.w3.org/2000/svg" width="58.407" height="58.406" viewBox="0 0 58.407 58.406"><path d="M20.65,41.3A20.654,20.654,0,0,1,12.612,1.623,20.655,20.655,0,0,1,28.689,39.676,20.522,20.522,0,0,1,20.65,41.3ZM12.416,18.768h0a.452.452,0,0,0-.191.042.463.463,0,0,0-.272.42v3a.463.463,0,0,0,.272.42.452.452,0,0,0,.191.042H18.77v6.352a.462.462,0,0,0,.463.463h3a.464.464,0,0,0,.421-.271.453.453,0,0,0,.042-.192V22.7H29.05a.46.46,0,0,0,.192-.042.465.465,0,0,0,.271-.421v-3a.465.465,0,0,0-.463-.463H22.7V12.415a.46.46,0,0,0-.042-.192.465.465,0,0,0-.421-.271h-3a.465.465,0,0,0-.421.271.473.473,0,0,0-.041.192v6.353H12.416Z" transform="translate(29.202) rotate(45)" fill="#ffea90"/></svg>