<svg xmlns="http://www.w3.org/2000/svg" width="37" height="28" viewBox="0 0 37 28"><g transform="translate(-342 -35)"><path d="M6,0H34a3,3,0,0,1,3,3V3a3,3,0,0,1-3,3H0A0,0,0,0,1,0,6V6A6,6,0,0,1,6,0Z" transform="translate(342 46)" fill="#fff"/><path d="M3,0H25a3,3,0,0,1,3,3V3a3,3,0,0,1-3,3H0A0,0,0,0,1,0,6V3A3,3,0,0,1,3,0Z" transform="translate(351 57)" fill="#f5c600"/><path d="M3,0H18a3,3,0,0,1,3,3V3a3,3,0,0,1-3,3H0A0,0,0,0,1,0,6V3A3,3,0,0,1,3,0Z" transform="translate(348 35)" fill="#1f4"/></g></svg>