<svg xmlns="http://www.w3.org/2000/svg" width="130.268" height="31.409" viewBox="0 0 130.268 31.409"><g transform="translate(-1005.732 -698.296)"><g transform="translate(517.366 90.296)"><path d="M2.427,16.807,16.092,3.142a1.688,1.688,0,0,1,2.386,0l1.594,1.594a1.688,1.688,0,0,1,0,2.384L9.245,18l10.83,10.881a1.687,1.687,0,0,1,0,2.384l-1.594,1.594a1.688,1.688,0,0,1-2.386,0L2.427,19.193A1.688,1.688,0,0,1,2.427,16.807Z" transform="translate(505.067 605.352)" fill="#1afa34"/></g><g transform="translate(498.732 91)"><path d="M2.427,16.807,16.092,3.142a1.688,1.688,0,0,1,2.386,0l1.594,1.594a1.688,1.688,0,0,1,0,2.384L9.245,18l10.83,10.881a1.687,1.687,0,0,1,0,2.384l-1.594,1.594a1.688,1.688,0,0,1-2.386,0L2.427,19.193A1.688,1.688,0,0,1,2.427,16.807Z" transform="translate(505.067 605.352)" fill="#fff"/></g><text transform="translate(1098 723)" fill="#fff" font-size="25" font-family="Montserrat-Bold, Montserrat" font-weight="700"><tspan x="-37.425" y="0">BACK</tspan></text></g></svg>