<svg xmlns="http://www.w3.org/2000/svg" width="64.214" height="72.241" viewBox="0 0 64.214 72.241"><path d="M52.4,28.618c-.534-1.425,14.2-14.585,5.611-25.248C56,.878,49.181,15.31,39.492,21.844c-5.346,3.6-17.783,11.277-17.783,15.52V64.823c0,5.1,19.722,10.5,34.707,10.5,5.494,0,13.453-34.418,13.453-39.885,0-5.49-16.94-5.394-17.466-6.823ZM17.7,29c-2.641,0-12.04,1.605-12.04,12.534V60.99c0,10.92,9.4,12.124,12.04,12.124s-4.013-2.3-4.013-9.07V38.467C13.682,31.372,20.332,29,17.7,29Z" transform="translate(-5.656 -3.084)" fill="#ffea90"/></svg>