<svg xmlns="http://www.w3.org/2000/svg" xmlns:xlink="http://www.w3.org/1999/xlink" width="188.21" height="65.078" viewBox="0 0 188.21 65.078"><defs><filter id="a" x="13.766" y="0" width="174.444" height="65.076" filterUnits="userSpaceOnUse"><feOffset dy="3" input="SourceAlpha"/><feGaussianBlur stdDeviation="3" result="b"/><feFlood flood-opacity="0.161"/><feComposite operator="in" in2="b"/><feComposite in="SourceGraphic"/></filter><filter id="c" x="0" y="0" width="77.508" height="65.078" filterUnits="userSpaceOnUse"><feOffset dy="3" input="SourceAlpha"/><feGaussianBlur stdDeviation="3" result="d"/><feFlood flood-opacity="0.161"/><feComposite operator="in" in2="d"/><feComposite in="SourceGraphic"/></filter></defs><g transform="translate(9 6)"><g transform="matrix(1, 0, 0, 1, -9, -6)" filter="url(#a)"><path d="M132.923,47.076H0L34.486,0H156.444L132.924,47.075ZM47.3,25.865v1.409a6.413,6.413,0,0,0,3.52,6.016,15.076,15.076,0,0,0,7.1,1.472,14.254,14.254,0,0,0,6.208-1.248c2.272-1.062,3.424-2.688,3.424-4.832a5.1,5.1,0,0,0-2.721-4.736c-1.359-.764-4.051-1.485-8-2.144a18.213,18.213,0,0,1-4.255-1.088,2.366,2.366,0,0,1-1.472-2.208,2.5,2.5,0,0,1,1.552-2.328A10.862,10.862,0,0,1,57.32,15.4a10.691,10.691,0,0,1,4.8.832c1.168.595,1.836,2.038,1.985,4.288h3.008A7.361,7.361,0,0,0,64.6,14.593c-1.624-1.311-4.074-1.976-7.28-1.976-3.079,0-5.421.5-6.96,1.472a4.9,4.9,0,0,0-2.32,4.417,5.062,5.062,0,0,0,3.3,4.736,27.816,27.816,0,0,0,5.728,1.568c2.355.466,3.873.789,4.513.96a5.839,5.839,0,0,1,2.272,1.023,2.351,2.351,0,0,1,.64,1.824,2.808,2.808,0,0,1-2.048,2.592,11.175,11.175,0,0,1-4.48.768,10.758,10.758,0,0,1-5.664-1.2,4,4,0,0,1-1.888-3.6V25.865ZM108.36,12.841v21.7h8.224c3.821,0,6.889-.915,9.12-2.72a9.206,9.206,0,0,0,2.712-3.464,11.3,11.3,0,0,0,.9-4.632c0-3.376-.969-6.046-2.88-7.936-1.976-1.953-4.883-2.944-8.64-2.944ZM89.671,17.706l0,0,14.655,16.83h2.784v-21.7H104.04V29.578c-1.145-1.315-3.531-4.006-7.3-8.224-3.058-3.441-5.545-6.3-7.392-8.512H86.6V31.754H71.592v-7.1H84.808V21.865H71.592v-6.24H86.5V12.841H68.552v21.7H89.671V17.706ZM116.68,31.754h-5.248V15.626h6.336c2.888,0,5.063.71,6.464,2.111,1.338,1.338,2.016,3.351,2.016,5.984a7.336,7.336,0,0,1-2.479,6C122.122,31.07,119.737,31.754,116.68,31.754Z" transform="translate(22.77 6)" fill="#fff"/></g><g transform="matrix(1, 0, 0, 1, -9, -6)" filter="url(#c)"><path d="M3415.491-8084l-21.723,47.078h-37.784L3380.968-8084Z" transform="translate(-3346.98 8090)" fill="#1afa34"/></g></g></svg>