<svg xmlns="http://www.w3.org/2000/svg" width="34.999" height="35.001" viewBox="0 0 34.999 35.001"><path d="M5852.5,9042a17.5,17.5,0,1,1,12.375-5.126A17.38,17.38,0,0,1,5852.5,9042Zm-6.976-19.093a.4.4,0,0,0-.164.033.392.392,0,0,0-.229.356v2.544a.394.394,0,0,0,.229.356.373.373,0,0,0,.164.036h5.383v5.383a.4.4,0,0,0,.036.163.389.389,0,0,0,.356.229h2.543a.389.389,0,0,0,.391-.393l0-5.383h5.383a.373.373,0,0,0,.164-.036.394.394,0,0,0,.229-.356V9023.3a.386.386,0,0,0-.393-.39h-5.385v-5.386a.407.407,0,0,0-.034-.163.392.392,0,0,0-.356-.229H5851.3a.392.392,0,0,0-.356.229.418.418,0,0,0-.036.163v5.386Z" transform="translate(-5835.001 -9006.999)" fill="#ffea90"/></svg>