<svg xmlns="http://www.w3.org/2000/svg" width="176.155" height="49.974" viewBox="0 0 176.155 49.974">
  <g id="Group_68" data-name="Group 68" transform="translate(-998.142 -66.026)">
    <g id="turn_on" data-name="Group 65">
      <path id="Path_55" data-name="Path 55" d="M1027.023,69H1174.3l-24.438,47h-148.2Z" fill="#0e6804"/>
      <path id="Path_56" data-name="Path 56" d="M1023.5,66.026h147.274l-24.439,46.851h-148.2Z" fill="#d3ac09"/>
    </g>
    <g id="turn_off" data-name="Group 67">
      <g id="Group_66" data-name="Group 66">
        <path id="Path_57" data-name="Path 57" d="M1044.634,85.272a.307.307,0,0,1,.079-.215.267.267,0,0,1,.208-.087h4.909a2.128,2.128,0,0,1,.853.175,2.33,2.33,0,0,1,.709.469,2.191,2.191,0,0,1,.653,1.55,1.948,1.948,0,0,1-.232.938,2.462,2.462,0,0,1-.606.732,2.663,2.663,0,0,1,.779.834,2.136,2.136,0,0,1,.3,1.107,2.291,2.291,0,0,1-.191.93,2.449,2.449,0,0,1-1.284,1.28,2.306,2.306,0,0,1-.932.191h-4.956a.287.287,0,0,1-.208-.079.282.282,0,0,1-.079-.208Zm1.225.795v6.012h3.9a1.342,1.342,0,0,0,.991-.39,1.293,1.293,0,0,0,.388-.946,1.448,1.448,0,0,0-.326-.931,1.125,1.125,0,0,0-.93-.4h-2.848a.28.28,0,0,1-.206-.08.274.274,0,0,1-.079-.206v-.477a.28.28,0,0,1,.079-.208.283.283,0,0,1,.206-.079h2.7a1.089,1.089,0,0,0,.851-.342,1.154,1.154,0,0,0,.31-.8,1.092,1.092,0,0,0-.34-.811,1.17,1.17,0,0,0-.849-.334Z" fill="#fff" stroke="#fff" stroke-miterlimit="10" stroke-width="1"/>
        <path id="Path_58" data-name="Path 58" d="M1058.661,86.051a.785.785,0,0,1,.1-.382,1.421,1.421,0,0,1,.254-.341,1.459,1.459,0,0,1,.342-.255.792.792,0,0,1,.382-.1h6.393a.8.8,0,0,1,.383.1,1.49,1.49,0,0,1,.34.255,1.4,1.4,0,0,1,.254.341.787.787,0,0,1,.1.382v6.043a.787.787,0,0,1-.1.382,1.42,1.42,0,0,1-.254.342,1.486,1.486,0,0,1-.34.254.8.8,0,0,1-.383.1h-6.393a.783.783,0,0,1-.382-.1,1.459,1.459,0,0,1-.6-.6.785.785,0,0,1-.1-.382Zm1.24,6.028h6.076V86.067H1059.9Z" fill="#fff" stroke="#fff" stroke-miterlimit="10" stroke-width="1"/>
        <path id="Path_59" data-name="Path 59" d="M1074.055,86.051a.806.806,0,0,1,.1-.382,1.489,1.489,0,0,1,.256-.341,1.457,1.457,0,0,1,.341-.255.8.8,0,0,1,.383-.1h6.392a.8.8,0,0,1,.382.1,1.5,1.5,0,0,1,.342.255,1.427,1.427,0,0,1,.254.341.8.8,0,0,1,.1.382v6.043a.8.8,0,0,1-.1.382,1.453,1.453,0,0,1-.254.342,1.5,1.5,0,0,1-.342.254.785.785,0,0,1-.382.1h-6.392a.789.789,0,0,1-.383-.1,1.453,1.453,0,0,1-.341-.254,1.517,1.517,0,0,1-.256-.342.806.806,0,0,1-.1-.382Zm1.241,6.028h6.075V86.067H1075.3Z" fill="#fff" stroke="#fff" stroke-miterlimit="10" stroke-width="1"/>
        <path id="Path_60" data-name="Path 60" d="M1089.56,85.272a.309.309,0,0,1,.081-.215.266.266,0,0,1,.207-.087h.652a.264.264,0,0,1,.206.087.3.3,0,0,1,.08.215V88.15l6.664,4.787c.116.086.175.148.175.191s-.027.048-.08.048h-1.4a.633.633,0,0,1-.38-.159l-4.979-3.578v3.45a.279.279,0,0,1-.08.208.283.283,0,0,1-.206.079h-.652a.274.274,0,0,1-.288-.287Zm2.244,2.64a.137.137,0,0,1-.048-.1.134.134,0,0,1,.031-.1l3.579-2.624a.528.528,0,0,1,.175-.1.862.862,0,0,1,.224-.023h1.288c.042,0,.062.01.062.032s-.037.074-.111.126l-4.389,3.213a.241.241,0,0,1-.094.032.128.128,0,0,1-.1-.032Z" fill="#fff" stroke="#fff" stroke-miterlimit="10" stroke-width="1"/>
      </g>
      <path id="Path_61" data-name="Path 61" d="M1112.915,84.8l8.595,8.595,8.229-8.229" fill="none" stroke="#fff" stroke-miterlimit="10" stroke-width="1"/>
    </g>
  </g>
</svg>
