<svg xmlns="http://www.w3.org/2000/svg" width="31.724" height="30.406" viewBox="0 0 31.724 30.406"><g transform="translate(-345.297 -33.797)"><path d="M6,0H34a3,3,0,0,1,3,3V3a3,3,0,0,1-3,3H0A0,0,0,0,1,0,6V6A6,6,0,0,1,6,0Z" transform="translate(371.46 64.203) rotate(-135)" fill="#fff"/><path d="M3,0H25a3,3,0,0,1,3,3V3a3,3,0,0,1-3,3H0A0,0,0,0,1,0,6V3A3,3,0,0,1,3,0Z" transform="translate(352.979 57.778) rotate(-45)" fill="#f5c600"/><path d="M3,0H18a3,3,0,0,1,3,3V3a3,3,0,0,1-3,3H0A0,0,0,0,1,0,6V3A3,3,0,0,1,3,0Z" transform="translate(348 35)" fill="#1f4" opacity="0"/></g></svg>