<svg xmlns="http://www.w3.org/2000/svg" width="218.539" height="28.997" viewBox="0 0 218.539 28.997">
  <g id="goggle-img" transform="translate(-627.972 -3452.325)">
    <path id="Icon_awesome-star" data-name="Icon awesome-star" d="M14.953,1l-4,7-8,2a1.752,1.752,0,0,0-1,3l6,5-1,9c-.252,1.472.7,1.688,2,1l7-3,8,3c1.3.683,2.252.472,2-1l-1-9,6-5a1.752,1.752,0,0,0-1-3l-8-2-4-7A1.627,1.627,0,0,0,14.953,1Z" transform="translate(781.018 3452.323)" fill="#d3e30a"/>
    <path id="Icon_awesome-star-2" data-name="Icon awesome-star" d="M14.732,1l-4,7-8,2a1.752,1.752,0,0,0-1,3l6,5-1,9c-.252,1.472.7,1.688,2,1l8-3,7,3c1.3.683,3.252.472,3-1l-2-9,6-5a1.752,1.752,0,0,0-1-3l-8-2-4-7A1.627,1.627,0,0,0,14.732,1Z" transform="translate(815.239 3452.323)" fill="#d3e30a"/>
    <path id="Icon_awesome-star-3" data-name="Icon awesome-star" d="M15.176,1l-4,7-8,2a1.752,1.752,0,0,0-1,3l6,5-2,9c-.252,1.472,1.7,1.688,3,1l7-3,8,3c1.3.683,2.252.472,2-1l-1-9,6-5a1.752,1.752,0,0,0-1-3l-9-2-3-7A1.627,1.627,0,0,0,15.176,1Z" transform="translate(746.797 3452.323)" fill="#d3e30a"/>
    <path id="Icon_awesome-star-4" data-name="Icon awesome-star" d="M15.191,1l-4,7-8,2a1.752,1.752,0,0,0-1,3l6,5-2,9c-.252,1.472,1.7,1.688,3,1l7-3,8,3c1.3.683,2.252.472,2-1l-1-9,6-5a1.752,1.752,0,0,0-1-3l-9-2-3-7A1.627,1.627,0,0,0,15.191,1Z" transform="translate(711.78 3452.323)" fill="#d3e30a"/>
    <path id="Icon_awesome-star-5" data-name="Icon awesome-star" d="M14.412,1l-3,7-8,2a1.752,1.752,0,0,0-1,3l5,5-1,9c-.252,1.472,1.7,1.688,3,1l7-3,7,3c1.3.683,3.252.472,3-1l-1-9,5-5a1.752,1.752,0,0,0-1-3l-8-2-3-7C17.757-.322,15.072-.338,14.412,1Z" transform="translate(677.559 3452.323)" fill="#d3e30a"/>
    <path id="Icon_zocial-google" data-name="Icon zocial-google" d="M6.156,22.265c0-1.554,1.409-2.785,3-4a10.032,10.032,0,0,1,6-2h1a4.6,4.6,0,0,1-1-3c0-.519-.286-.481,0-1-.179.018.341,0,0,0a7.507,7.507,0,0,1-5-2,5.39,5.39,0,0,1-2-4,4.732,4.732,0,0,1,2-4,7.782,7.782,0,0,1,5-2h9l-2,1h-3a4.137,4.137,0,0,1,2,2,6.61,6.61,0,0,1,1,3,4.46,4.46,0,0,1-2,4,14.843,14.843,0,0,0-2,2c-.2.3,0,.553,0,1,0,.339.517.481,1,1a5.8,5.8,0,0,0,1,1,7.578,7.578,0,0,1,2,3,6.392,6.392,0,0,1,1,3,4.719,4.719,0,0,1-2,4,9.387,9.387,0,0,1-6,2,12.52,12.52,0,0,1-6-2C7.512,24.374,6.156,23.731,6.156,22.265Zm3-1c0,1.233.954,2.133,2,3a6.045,6.045,0,0,0,4,1c2.127,0,3.043-.214,4-1s2-1.7,2-3a4.664,4.664,0,0,0,0-1c-.053-.2.071.17,0,0a13.238,13.238,0,0,0-1-1c-.142-.17.107.116,0,0a13.175,13.175,0,0,0-1-1c-.241-.179.125.089,0,0s-.678-.776-1-1,.142.09,0,0a13.972,13.972,0,0,0-3,0h0a6.417,6.417,0,0,0-4,1A3.842,3.842,0,0,0,9.156,21.265Zm2-15a8.576,8.576,0,0,0,2,4,3.491,3.491,0,0,0,3,1h0a1.844,1.844,0,0,0,2-1,6.241,6.241,0,0,0,1-3,9.252,9.252,0,0,0,0-1c-.178-1.413-1.116-2.017-2-3s-1.927-1.964-3-2h0a1.854,1.854,0,0,0-2,1,6.179,6.179,0,0,0-1,3A9.256,9.256,0,0,0,11.156,6.265Z" transform="translate(621.815 3454.057)"/>
  </g>
</svg>
