<svg xmlns="http://www.w3.org/2000/svg" width="218.245" height="28.654" viewBox="0 0 218.245 28.654"><g transform="translate(-628.372 -3452.322)"><path d="M14.8,1,11.15,8.4,2.975,9.6a1.792,1.792,0,0,0-.99,3.055L7.9,18.415,6.5,26.557a1.79,1.79,0,0,0,2.6,1.886L16.41,24.6l7.314,3.844a1.791,1.791,0,0,0,2.6-1.886l-1.4-8.142,5.915-5.764a1.792,1.792,0,0,0-.99-3.055L21.67,8.4,18.016,1A1.792,1.792,0,0,0,14.8,1Z" transform="translate(781.018 3452.323)" fill="#d3e30a"/><path d="M14.8,1,11.15,8.4,2.975,9.6a1.792,1.792,0,0,0-.99,3.055L7.9,18.415,6.5,26.557a1.79,1.79,0,0,0,2.6,1.886L16.41,24.6l7.314,3.844a1.791,1.791,0,0,0,2.6-1.886l-1.4-8.142,5.915-5.764a1.792,1.792,0,0,0-.99-3.055L21.67,8.4,18.016,1A1.792,1.792,0,0,0,14.8,1Z" transform="translate(815.239 3452.323)" fill="#d3e30a"/><path d="M14.8,1,11.15,8.4,2.975,9.6a1.792,1.792,0,0,0-.99,3.055L7.9,18.415,6.5,26.557a1.79,1.79,0,0,0,2.6,1.886L16.41,24.6l7.314,3.844a1.791,1.791,0,0,0,2.6-1.886l-1.4-8.142,5.915-5.764a1.792,1.792,0,0,0-.99-3.055L21.67,8.4,18.016,1A1.792,1.792,0,0,0,14.8,1Z" transform="translate(746.797 3452.323)" fill="#d3e30a"/><path d="M14.8,1,11.15,8.4,2.975,9.6a1.792,1.792,0,0,0-.99,3.055L7.9,18.415,6.5,26.557a1.79,1.79,0,0,0,2.6,1.886L16.41,24.6l7.314,3.844a1.791,1.791,0,0,0,2.6-1.886l-1.4-8.142,5.915-5.764a1.792,1.792,0,0,0-.99-3.055L21.67,8.4,18.016,1A1.792,1.792,0,0,0,14.8,1Z" transform="translate(711.78 3452.323)" fill="#d3e30a"/><path d="M14.8,1,11.15,8.4,2.975,9.6a1.792,1.792,0,0,0-.99,3.055L7.9,18.415,6.5,26.557a1.79,1.79,0,0,0,2.6,1.886L16.41,24.6l7.314,3.844a1.791,1.791,0,0,0,2.6-1.886l-1.4-8.142,5.915-5.764a1.792,1.792,0,0,0-.99-3.055L21.67,8.4,18.016,1A1.792,1.792,0,0,0,14.8,1Z" transform="translate(677.559 3452.323)" fill="#d3e30a"/><path d="M6.557,22.04a5.205,5.205,0,0,1,2.386-4.155,9.214,9.214,0,0,1,5.765-1.824h1.448a3.165,3.165,0,0,1-1.127-2.306,3.2,3.2,0,0,1,.43-1.555c-.179.018-.437.027-.778.027a6.219,6.219,0,0,1-4.557-1.743,5.785,5.785,0,0,1-1.77-4.29,5.414,5.414,0,0,1,2.2-4.263A7.635,7.635,0,0,1,15.566.107h8.312l-1.85,1.341H19.4A3.714,3.714,0,0,1,21.37,3.271a6.255,6.255,0,0,1,.711,2.976,5.415,5.415,0,0,1-2.359,4.344,6.117,6.117,0,0,0-1.287,1.233,2.037,2.037,0,0,0-.295,1.126,2.162,2.162,0,0,0,.723,1.287,10.589,10.589,0,0,0,1.449,1.313,7.049,7.049,0,0,1,2.266,2.36,6.513,6.513,0,0,1,.63,3.03,5.278,5.278,0,0,1-2.2,4.2,9.177,9.177,0,0,1-5.952,1.783,12.488,12.488,0,0,1-6.034-1.341A3.991,3.991,0,0,1,6.557,22.04Zm3-.884a3.96,3.96,0,0,0,1.569,3.151,5.909,5.909,0,0,0,3.9,1.3,7.278,7.278,0,0,0,4.626-1.179,3.855,3.855,0,0,0,1.434-3.137,2.963,2.963,0,0,0-.107-.858,4.354,4.354,0,0,0-.188-.55,2.008,2.008,0,0,0-.323-.509c-.142-.17-.267-.313-.375-.429a3.957,3.957,0,0,0-.523-.442c-.241-.179-.425-.313-.55-.4s-.349-.246-.67-.47-.555-.38-.7-.469a6.965,6.965,0,0,0-2.065-.322h-.107a6.889,6.889,0,0,0-4.1,1.26A3.7,3.7,0,0,0,9.56,21.156ZM11.328,6.167a6.883,6.883,0,0,0,1.623,3.647,3.952,3.952,0,0,0,2.937,1.555h.106a2.773,2.773,0,0,0,2.414-1.394,4.8,4.8,0,0,0,.723-2.654,8.21,8.21,0,0,0-.054-.912,6.438,6.438,0,0,0-1.595-3.593,4.1,4.1,0,0,0-2.936-1.528H14.44A2.8,2.8,0,0,0,12,2.655a4.67,4.67,0,0,0-.724,2.628A7.51,7.51,0,0,0,11.328,6.167Z" transform="translate(621.815 3454.057)"/></g></svg>