<svg xmlns="http://www.w3.org/2000/svg" width="162" height="32.017" viewBox="0 0 162 32.017">
  <g id="logo" transform="translate(-94 -75.983)">
    <path id="Path_32" data-name="Path 32" d="M133.5,101.5l11-24h2l-13,29-13-29h2Z" fill="#d6de23" stroke="#d6de23" stroke-miterlimit="10" stroke-width="1"/>
    <path id="Path_33" data-name="Path 33" d="M200.5,83.5v23h-2v-29l19,24v-24h2v29Z" fill="#d6de23" stroke="#d6de23" stroke-miterlimit="10" stroke-width="1"/>
    <path id="Path_34" data-name="Path 34" d="M237.5,106.5v-29h18v2h-16v11h13v3h-13v11h16v2Z" fill="#d6de23" stroke="#d6de23" stroke-miterlimit="10" stroke-width="1"/>
    <g id="Group_54" data-name="Group 54">
      <path id="Path_35" data-name="Path 35" d="M175,92c-.25-3.343-.23-6.964,1-10a10.1,10.1,0,0,1,6-6c.132-.053.78.041,1,0,.021.4,0,1.641,0,2a17.964,17.964,0,0,1-2,9A10.749,10.749,0,0,1,175,92Z" fill="#255127"/>
      <path id="Path_36" data-name="Path 36" d="M170,97c.6,1.432,1.343,2.594,2,4,.319.675.63,1.354,1,2a52.487,52.487,0,0,0,3,5h3c-1.715-1.856-2.5-3.974-4-6a4.584,4.584,0,0,1-1-3,13.312,13.312,0,0,0-1-6c-.8-2.127-2.182-3.634-2-6-.118-.006.12.01,0,0-.059.471.045.523,0,1a14.489,14.489,0,0,0,1,6,30.069,30.069,0,0,1,1,4c-.165.055-.837.95-1,1a57.824,57.824,0,0,1-3-7c-.764-2.381-.558-5.512-1-8-.147.16.005.842,0,1-.017,3.305-.677,5.978,1,9A30.311,30.311,0,0,1,170,97Z" fill="#6e6e2e"/>
      <path id="Path_37" data-name="Path 37" d="M171,97a7.371,7.371,0,0,1-5,0,13.032,13.032,0,0,1-5-3,29.051,29.051,0,0,1-6-9c-.091-.215.076.219,0,0-.022-.06.013-.875,0-1,.962-.52,1.883-.078,3,0a8.588,8.588,0,0,1,5,2,26.786,26.786,0,0,1,8,11C171.045,97.119,170.943,96.807,171,97Z" fill="#255127"/>
    </g>
    <g id="Group_55" data-name="Group 55">
      <path id="Path_38" data-name="Path 38" d="M95,92h1v2h1v1H96v2c0,.166-.115.945,0,1,.074.042-.085,0,0,0a4.265,4.265,0,0,0,1,0v0c-.076.029.164-.046,0,0a6.944,6.944,0,0,1-1,0h0c-.282,0,.245.172,0,0a9.012,9.012,0,0,1-1,0h0c-.049-.062.027.061,0,0a4.182,4.182,0,0,1,0-1V95H94V94h1Z" fill="#f1eb63"/>
      <path id="Path_39" data-name="Path 39" d="M100,92h1v2h0c.152-.083-.248.072,0,0,.129-.03.807,0,1,0h0a2.466,2.466,0,0,1,2,1c.115.229,0,.69,0,1v2h-1V96c0-.366-.691-.885-1-1-.127-.057.2,0,0,0h0c-.362,0-.848-.116-1,0-.195.117,0,.677,0,1v2h-1V92Z" fill="#f1eb63"/>
      <path id="Path_40" data-name="Path 40" d="M109,94h0c.434,0,.6.651,1,1,.2.194-.075-.138,0,0,.219.384,1,.581,1,1v1c0,.083.014,0,0,0h-4c.065.318.842-.157,1,0,.242.259.7,1,1,1,.392,0,.736-.61,1-1,.048-.1-.01,0,0,0,.514.232,0-.007,0,0-.038.1.147.792,0,1-.437.515-.407,1-1,1h0a3.072,3.072,0,0,1-2-1c-.3-.427,0-1.493,0-2h0c0-.7-.53-.519,0-1A6.249,6.249,0,0,1,109,94Zm-1,2h2a9.687,9.687,0,0,0-1-1c-.226-.193.267,0,0,0-.409,0-.736.568-1,1Z" fill="#f1eb63"/>
      <path id="Path_41" data-name="Path 41" d="M113,96h3v1h-3Z" fill="#f1eb63"/>
    </g>
  </g>
</svg>
