<svg xmlns="http://www.w3.org/2000/svg" width="359.248" height="408.021" viewBox="0 0 359.248 408.021">
  <g id="Group_5" data-name="Group 5" transform="translate(-2863.147 -942.227)" opacity="0.1">
    <path id="Path_75" data-name="Path 75" d="M3116.654,1142.836c-3.224-43.111.517-84.092,16.39-123.258,15.42-38.021,44.71-61.529,82.088-76.066,1.714-.668,3.653-.756,6.475-1.285.278,5.166.782,9.75.782,14.375.226,41.2-6.35,80.9-26.3,117.55C3178.371,1106.478,3151.941,1128.752,3116.654,1142.836Z" fill="#255127"/>
    <path id="Path_76" data-name="Path 76" d="M3058.666,1209.58c7.735,18.492,15.975,36.76,24.44,54.889,4.132,8.7,9.423,16.867,14.2,25.207,12.069,20.863,24.5,41.422,38.763,60.572h41.02c-22.109-23.963-41.17-50.494-60.584-76.621-8.2-11.01-11.69-22.248-10.418-35.477,2.532-27.335-4.938-53.238-14.235-78.043-10.306-27.437-22.929-53.945-20.585-84.468-1.512-.076-3.087-.176-4.637-.3-.756,6.072-1.764,12.156-2.343,18.318-2.671,27.614,8.088,52.155,16.315,77.641,5.769,17.775,7.344,36.861,10.8,55.342-2.142.705-4.233,1.373-6.325,2.015-14.109-29.97-31.457-58.857-41.434-90.164-9.839-30.724-12.233-63.883-17.927-95.957a9.09,9.09,0,0,0-2.645,6.123c-.227,42.643.428,85.01,22.059,124.014C3051.4,1184.006,3053.652,1197.459,3058.666,1209.58Z" fill="#6e6e2e"/>
    <path id="Path_77" data-name="Path 77" d="M3069.777,1208.318c-20.735,7.836-40.728,7.131-60.6-.074-25.6-9.373-47.544-24.553-66.933-43.451-31.974-31.1-57.711-66.717-75.435-107.926-1.172-2.771-2.281-5.631-3.276-8.465a15.108,15.108,0,0,1-.391-3.25,72.374,72.374,0,0,1,40.187-9c25.171,1.739,46.915,12.221,66.215,27.666,46.083,36.811,77.049,84.506,98.554,138.879C3068.694,1204.238,3069.034,1205.824,3069.777,1208.318Z" fill="#255127"/>
  </g>
</svg>
