<svg xmlns="http://www.w3.org/2000/svg" width="562.401" height="638.755" viewBox="0 0 562.401 638.755">
  <g id="Group_301" data-name="Group 301" transform="translate(-2863.147 -942.227)" opacity="0.303">
    <path id="Path_75" data-name="Path 75" d="M3117.255,1256.28c-5.048-67.49.809-131.646,25.658-192.96,24.14-59.522,69.994-96.323,128.509-119.081,2.683-1.046,5.719-1.184,10.136-2.012.436,8.087,1.225,15.264,1.225,22.5.354,64.491-9.941,126.652-41.181,184.024C3213.873,1199.361,3172.5,1234.231,3117.255,1256.28Z" transform="translate(142.757)" fill="#255127"/>
    <path id="Path_76" data-name="Path 76" d="M3078.814,1304.046c12.109,28.949,25.009,57.548,38.26,85.928,6.469,13.628,14.752,26.405,22.227,39.462,18.894,32.661,38.359,64.846,60.683,94.825H3264.2c-34.612-37.514-64.452-79.048-94.844-119.95-12.839-17.236-18.3-34.829-16.309-55.539,3.964-42.793-7.73-83.344-22.285-122.176-16.134-42.953-35.9-84.451-32.226-132.234-2.367-.119-4.832-.276-7.259-.474-1.183,9.505-2.761,19.03-3.668,28.677-4.181,43.229,12.662,81.648,25.541,121.547,9.031,27.827,11.5,57.706,16.9,86.638-3.354,1.1-6.626,2.15-9.9,3.154-22.088-46.918-49.246-92.14-64.865-141.151-15.4-48.1-19.15-100.009-28.065-150.22a14.23,14.23,0,0,0-4.141,9.586c-.355,66.757.67,133.083,34.533,194.143C3067.434,1264.01,3070.965,1285.07,3078.814,1304.046Z" transform="translate(90.417 56.722)" fill="#6e6e2e"/>
    <path id="Path_77" data-name="Path 77" d="M3186.625,1305.777c-32.461,12.267-63.76,11.164-94.861-.116-40.075-14.673-74.43-38.437-104.783-68.022-50.055-48.692-90.346-104.445-118.093-168.958-1.835-4.338-3.571-8.815-5.128-13.252-.454-1.182-.357-2.564-.612-5.088,19.407-10.494,40.352-15.678,62.913-14.083,39.4,2.722,73.445,19.132,103.659,43.311,72.143,57.627,120.62,132.294,154.286,217.415C3184.93,1299.39,3185.462,1301.873,3186.625,1305.777Z" transform="translate(0 53.014)" fill="#255127"/>
  </g>
</svg>
